<?xml version="1.0" encoding="UTF-8"?>
<!-- Generator: visioncortex VTracer 0.6.4 -->
<svg version="1.1" xmlns="http://www.w3.org/2000/svg" width="400" height="100">
<path d="M0 0 C4.186875 -0.061875 8.37375 -0.12375 12.6875 -0.1875 C13.999363 -0.214812 15.311226 -0.242124 16.662842 -0.270264 C17.706096 -0.277756 18.749351 -0.285249 19.824219 -0.292969 C20.887292 -0.308679 21.950366 -0.32439 23.045654 -0.340576 C27.191579 0.137365 29.751788 1.880914 32.8125 4.625 C34.678297 8.356593 34.670007 11.916486 34 16 C32.893228 18.35249 31.666739 19.968662 30 22 C30.763125 22.20625 31.52625 22.4125 32.3125 22.625 C35 24 35 24 36.875 26.5 C38.401896 31.250344 38.192048 35.175426 37 40 C34.827367 43.596082 32.884992 45.491015 29 47 C25.883789 47.227051 25.883789 47.227051 22.265625 47.195312 C21.098057 47.190317 19.930488 47.185322 18.727539 47.180176 C17.249951 47.161968 15.772363 47.14376 14.25 47.125 C9.5475 47.08375 4.845 47.0425 0 47 C0 31.49 0 15.98 0 0 Z M10 8 C10 11.63 10 15.26 10 19 C17.300271 19.435778 17.300271 19.435778 24 17 C25.176122 15.213289 25.176122 15.213289 25 13 C23.982695 10.288307 23.982695 10.288307 22 8 C19.036185 7.395182 19.036185 7.395182 15.8125 7.6875 C14.72582 7.732617 13.639141 7.777734 12.519531 7.824219 C11.688086 7.882227 10.856641 7.940234 10 8 Z M10 26 C10 30.29 10 34.58 10 39 C12.27025 39.080973 14.541321 39.139177 16.8125 39.1875 C18.709355 39.239707 18.709355 39.239707 20.644531 39.292969 C23.918574 39.280264 23.918574 39.280264 25.917969 37.707031 C27.7916 34.751158 27.481867 32.373069 27 29 C23.258792 26.011137 20.391078 25.657437 15.6875 25.8125 C12.872187 25.905313 12.872187 25.905313 10 26 Z " fill="#F0F0F0" transform="translate(15,28)"/>
<path d="M0 0 C6.001875 -0.092813 6.001875 -0.092813 12.125 -0.1875 C13.375552 -0.214812 14.626104 -0.242124 15.914551 -0.270264 C26.247428 -0.347673 26.247428 -0.347673 31 3 C33.407773 5.889328 33.961154 7.694781 34.4375 11.4375 C33.926829 15.595821 32.551705 17.730628 30 21 C30.969375 21.78375 31.93875 22.5675 32.9375 23.375 C34.839623 24.912887 35.8963 25.792599 37 28 C37.405279 32.839969 37.592329 37.420457 35.875 42 C32.711348 45.374562 29.33391 46.860279 24.748535 47.340576 C23.606909 47.324866 22.465283 47.309155 21.289062 47.292969 C20.167095 47.285476 19.045127 47.277983 17.88916 47.270264 C15.778401 47.229296 15.778401 47.229296 13.625 47.1875 C6.880625 47.094687 6.880625 47.094687 0 47 C0 31.49 0 15.98 0 0 Z M10 8 C10 11.63 10 15.26 10 19 C16.721675 19.229045 16.721675 19.229045 23 17 C24.327452 15.887414 24.327452 15.887414 24.25 13.0625 C24.1675 12.051875 24.085 11.04125 24 10 C20.579058 7.719372 19.318128 7.78075 15.3125 7.875 C13.559375 7.91625 11.80625 7.9575 10 8 Z M10 26 C10 30.29 10 34.58 10 39 C12.27025 39.080973 14.541321 39.139177 16.8125 39.1875 C18.709355 39.239707 18.709355 39.239707 20.644531 39.292969 C23.925479 39.284193 23.925479 39.284193 25.925781 37.675781 C27.607765 35.051887 27.378994 33.031954 27 30 C25.454935 27.963324 24.278538 27.139269 22 26 C19.95945 25.929344 17.916657 25.91578 15.875 25.9375 C13.93625 25.958125 11.9975 25.97875 10 26 Z " fill="#F3F3F3" transform="translate(166,28)"/>
<path d="M0 0 C6.001875 -0.092813 6.001875 -0.092813 12.125 -0.1875 C13.375552 -0.214812 14.626104 -0.242124 15.914551 -0.270264 C26.409392 -0.348886 26.409392 -0.348886 31 3 C33.991634 5.991634 34.431708 8.261659 34.4375 12.4375 C34.340971 16.24785 34.156819 17.743862 32.125 21.0625 C31.073125 22.021563 31.073125 22.021563 30 23 C29.34 23.66 28.68 24.32 28 25 C28.603281 25.817266 29.206563 26.634531 29.828125 27.476562 C32.315875 31.208187 33.519075 35.09386 34.75 39.375 C34.97043 40.111055 35.190859 40.847109 35.417969 41.605469 C35.954293 43.400988 36.478426 45.200141 37 47 C33.37 47 29.74 47 26 47 C25.60168 45.868203 25.203359 44.736406 24.792969 43.570312 C24.258337 42.088352 23.723152 40.606592 23.1875 39.125 C22.926465 38.378633 22.66543 37.632266 22.396484 36.863281 C22.135449 36.147852 21.874414 35.432422 21.605469 34.695312 C21.369812 34.035474 21.134155 33.375635 20.891357 32.695801 C19.986081 30.645194 19.986081 30.645194 17 29 C14.69 28.67 12.38 28.34 10 28 C10 34.27 10 40.54 10 47 C6.7 47 3.4 47 0 47 C0 31.49 0 15.98 0 0 Z M10 8 C10 11.96 10 15.92 10 20 C12.382187 20.030938 12.382187 20.030938 14.8125 20.0625 C16.15248 20.079902 16.15248 20.079902 17.519531 20.097656 C20.134138 20.1101 20.134138 20.1101 23 19 C24.414419 16.171163 24.319003 14.126233 24 11 C21.814537 8.829679 20.500772 8.056906 17.421875 7.707031 C16.099297 7.759238 16.099297 7.759238 14.75 7.8125 C12.39875 7.905313 12.39875 7.905313 10 8 Z " fill="#F1F1F1" transform="translate(262,28)"/>
<path d="M0 0 C6.001875 -0.092813 6.001875 -0.092813 12.125 -0.1875 C13.375552 -0.214812 14.626104 -0.242124 15.914551 -0.270264 C26.224767 -0.347503 26.224767 -0.347503 31 3 C34.204201 6.631428 34.51132 10.106348 34.363281 14.78125 C33.650153 19.1367 31.025441 21.974559 28 25 C28.326133 25.617461 28.652266 26.234922 28.988281 26.871094 C36 40.460177 36 40.460177 36 47 C32.7 47 29.4 47 26 47 C25.401875 45.494375 24.80375 43.98875 24.1875 42.4375 C23.813672 41.528711 23.439844 40.619922 23.054688 39.683594 C22 37 22 37 21.382812 34.847656 C20.806862 32.71766 20.806862 32.71766 19 30 C16.03 29.34 13.06 28.68 10 28 C10 34.27 10 40.54 10 47 C6.7 47 3.4 47 0 47 C0 31.49 0 15.98 0 0 Z M10 8 C10 11.96 10 15.92 10 20 C11.5675 20.061875 13.135 20.12375 14.75 20.1875 C15.631719 20.222305 16.513438 20.257109 17.421875 20.292969 C20.500905 19.943079 21.805587 19.159181 24 17 C24.666667 14 24.666667 14 24 11 C21.805587 8.840819 20.500905 8.056921 17.421875 7.707031 C16.099297 7.759238 16.099297 7.759238 14.75 7.8125 C12.39875 7.905313 12.39875 7.905313 10 8 Z " fill="#F3F3F3" transform="translate(117,28)"/>
<path d="M0 0 C1.792441 0.017402 1.792441 0.017402 3.621094 0.035156 C5.417402 0.048691 5.417402 0.048691 7.25 0.0625 C8.176836 0.074102 9.103672 0.085703 10.058594 0.097656 C12.339398 6.629701 14.617812 13.162576 16.894531 19.696045 C17.670016 21.920523 18.446057 24.144807 19.222656 26.368896 C20.336083 29.557928 21.447538 32.747641 22.558594 35.9375 C22.908574 36.938533 23.258555 37.939565 23.619141 38.970932 C23.939473 39.891811 24.259805 40.81269 24.589844 41.761475 C24.874082 42.576439 25.15832 43.391404 25.451172 44.231064 C26.058594 46.097656 26.058594 46.097656 26.058594 47.097656 C22.428594 47.097656 18.798594 47.097656 15.058594 47.097656 C12.058594 40.472656 12.058594 40.472656 12.058594 37.097656 C6.118594 37.097656 0.178594 37.097656 -5.941406 37.097656 C-6.250781 38.562031 -6.560156 40.026406 -6.878906 41.535156 C-7.816406 45.972656 -7.816406 45.972656 -8.941406 47.097656 C-10.627496 47.169711 -12.316413 47.181517 -14.003906 47.160156 C-14.923008 47.151133 -15.842109 47.142109 -16.789062 47.132812 C-17.499336 47.121211 -18.209609 47.109609 -18.941406 47.097656 C-18.263102 41.713074 -16.6188 36.883683 -14.816406 31.796875 C-14.509448 30.919895 -14.20249 30.042914 -13.88623 29.139359 C-13.239645 27.295453 -12.590673 25.452382 -11.939453 23.610107 C-10.939319 20.779249 -9.94762 17.945539 -8.957031 15.111328 C-8.327317 13.318837 -7.697125 11.526513 -7.066406 9.734375 C-6.768472 8.883407 -6.470537 8.03244 -6.163574 7.155685 C-3.670215 0.121853 -3.670215 0.121853 0 0 Z M2.058594 12.097656 C1.386748 14.200175 0.721284 16.304734 0.058594 18.410156 C-0.312656 19.581914 -0.683906 20.753672 -1.066406 21.960938 C-2.075754 25.036523 -2.075754 25.036523 -1.941406 28.097656 C1.358594 28.097656 4.658594 28.097656 8.058594 28.097656 C7.020283 22.609441 5.994407 17.352006 4.058594 12.097656 C3.398594 12.097656 2.738594 12.097656 2.058594 12.097656 Z " fill="#EFEFEF" transform="translate(79.94140625,27.90234375)"/>
<path d="M0 0 C10.56 0 21.12 0 32 0 C32 2.97 32 5.94 32 9 C24.74 9 17.48 9 10 9 C10 12.3 10 15.6 10 19 C16.27 19 22.54 19 29 19 C29 21.64 29 24.28 29 27 C22.73 27 16.46 27 10 27 C10 30.96 10 34.92 10 39 C17.26 39 24.52 39 32 39 C32 41.64 32 44.28 32 47 C21.44 47 10.88 47 0 47 C0 31.49 0 15.98 0 0 Z " fill="#F7F7F7" transform="translate(217,28)"/>
<path d="M0 0 C3.798381 -0.547454 7.221052 -0.756834 11 0 C13.827266 2.576083 15.266902 5.629556 17 9 C18.633098 11.688042 20.311797 14.346287 22 17 C22.245325 16.48502 22.490649 15.970039 22.743408 15.439453 C29.942097 0.746216 29.942097 0.746216 35.113281 -1.128906 C37.916444 -1.067099 40.311632 -0.781978 43 0 C42.005732 2.044464 41.00413 4.085361 40 6.125 C39.536663 7.077899 39.536663 7.077899 39.063965 8.050049 C37.462666 11.287423 35.808505 14.381712 33.789062 17.378906 C27.354389 27.216755 26.802994 35.450521 27 47 C23.37 47 19.74 47 16 47 C16.090234 45.834688 16.180469 44.669375 16.273438 43.46875 C16.808708 28.046267 10.78451 17.830042 2.382812 5.226318 C1 3 1 3 0 0 Z " fill="#EDAB00" transform="translate(348,28)"/>
<path d="M0 0 C3.3 0 6.6 0 10 0 C10 12.87 10 25.74 10 39 C16.93 39 23.86 39 31 39 C31 41.64 31 44.28 31 47 C20.77 47 10.54 47 0 47 C0 31.49 0 15.98 0 0 Z " fill="#F5B100" transform="translate(311,28)"/>
</svg>
